<?xml version="1.0" encoding="utf-8"?>
<!-- Generated by Mocodo 4.3.3 -->
<svg width="877" height="594" viewBox="0 0 877 594" xmlns="http://www.w3.org/2000/svg">
<rect x="0" y="0" width="877" height="594" fill="#FFFFFF" stroke="none" stroke-width="0"/>

<!-- Association CONTENIR_AS -->
<g>
	<line x1="87" y1="80" x2="212" y2="80" stroke="#000000" stroke-width="1"/>
	<line x1="339" y1="80" x2="212" y2="80" stroke="#000000" stroke-width="1"/>
	<g>
		<path d="M250 54 a14 14 90 0 1 14 14 V80 h-104 V68 a14 14 90 0 1 14 -14" fill="#FFFFFF" stroke="#FFFFFF" stroke-width="0"/>
		<path d="M264 80 v12 a14 14 90 0 1 -14 14 H174 a14 14 90 0 1 -14 -14 V80 H104" fill="#FFFFFF" stroke="#FFFFFF" stroke-width="0"/>
		<rect x="160" y="54" width="104" height="52" fill="none" rx="14" stroke="#000000" stroke-width="1.5"/>
		<line x1="160" y1="80" x2="264" y2="80" stroke="#000000" stroke-width="1"/>
		<text x="168" y="72.6" fill="#000000" font-family="Trebuchet MS" font-size="14">CONTENIR_AS</text>
	</g>
	<text x="133" y="97" fill="#000000" font-family="Verdana" font-size="12">1,N</text>
	<text x="280" y="97" fill="#000000" font-family="Verdana" font-size="12">1,1</text>
</g>

<!-- Association CONTENIR_SL -->
<g>
	<line x1="339" y1="80" x2="455" y2="80" stroke="#000000" stroke-width="1"/>
	<line x1="590" y1="80" x2="455" y2="80" stroke="#000000" stroke-width="1"/>
	<g>
		<path d="M492 54 a14 14 90 0 1 14 14 V80 h-102 V68 a14 14 90 0 1 14 -14" fill="#FFFFFF" stroke="#FFFFFF" stroke-width="0"/>
		<path d="M506 80 v12 a14 14 90 0 1 -14 14 H418 a14 14 90 0 1 -14 -14 V80 H102" fill="#FFFFFF" stroke="#FFFFFF" stroke-width="0"/>
		<rect x="404" y="54" width="102" height="52" fill="none" rx="14" stroke="#000000" stroke-width="1.5"/>
		<line x1="404" y1="80" x2="506" y2="80" stroke="#000000" stroke-width="1"/>
		<text x="411" y="72.6" fill="#000000" font-family="Trebuchet MS" font-size="14">CONTENIR_SL</text>
	</g>
	<text x="377" y="97" fill="#000000" font-family="Verdana" font-size="12">1,1</text>
	<text x="511" y="97" fill="#000000" font-family="Verdana" font-size="12">1,N</text>
</g>

<!-- Association CONTENIR_LS -->
<g>
	<line x1="590" y1="80" x2="725" y2="80" stroke="#000000" stroke-width="1"/>
	<line x1="838" y1="80" x2="725" y2="80" stroke="#000000" stroke-width="1"/>
	<g>
		<path d="M762 54 a14 14 90 0 1 14 14 V80 h-102 V68 a14 14 90 0 1 14 -14" fill="#FFFFFF" stroke="#FFFFFF" stroke-width="0"/>
		<path d="M776 80 v12 a14 14 90 0 1 -14 14 H688 a14 14 90 0 1 -14 -14 V80 H102" fill="#FFFFFF" stroke="#FFFFFF" stroke-width="0"/>
		<rect x="674" y="54" width="102" height="52" fill="none" rx="14" stroke="#000000" stroke-width="1.5"/>
		<line x1="674" y1="80" x2="776" y2="80" stroke="#000000" stroke-width="1"/>
		<text x="681" y="72.6" fill="#000000" font-family="Trebuchet MS" font-size="14">CONTENIR_LS</text>
	</g>
	<text x="647" y="97" fill="#000000" font-family="Verdana" font-size="12">1,1</text>
	<text x="781" y="97" fill="#000000" font-family="Verdana" font-size="12">1,N</text>
</g>

<!-- Association COMMANDE -->
<g>
	<line x1="87" y1="324" x2="87" y2="202" stroke="#000000" stroke-width="1"/>
	<line x1="87" y1="80" x2="87" y2="202" stroke="#000000" stroke-width="1"/>
	<g>
		<path d="M151 167 a14 14 90 0 1 14 14 V193 h-156 V181 a14 14 90 0 1 14 -14" fill="#FFFFFF" stroke="#FFFFFF" stroke-width="0"/>
		<path d="M165 193 v30 a14 14 90 0 1 -14 14 H23 a14 14 90 0 1 -14 -14 V193 H156" fill="#FFFFFF" stroke="#FFFFFF" stroke-width="0"/>
		<rect x="9" y="167" width="156" height="70" fill="none" rx="14" stroke="#000000" stroke-width="1.5"/>
		<line x1="9" y1="193" x2="165" y2="193" stroke="#000000" stroke-width="1"/>
		<text x="50" y="185.6" fill="#000000" font-family="Trebuchet MS" font-size="14">COMMANDE</text>
		<text x="16" y="211.6" fill="#000000" font-family="Trebuchet MS" font-size="14">quantite_commandee</text>
		<text x="16" y="229.6" fill="#000000" font-family="Trebuchet MS" font-size="14">date_commande</text>
	</g>
	<text x="92" y="254" fill="#000000" font-family="Verdana" font-size="12">0,N</text>
	<text x="92" y="159" fill="#000000" font-family="Verdana" font-size="12">0,N</text>
</g>

<!-- Association EFFECTUER -->
<g>
	<line x1="339" y1="80" x2="339" y2="202" stroke="#000000" stroke-width="1"/>
	<line x1="339" y1="324" x2="339" y2="202" stroke="#000000" stroke-width="1"/>
	<g>
		<path d="M369 176 a14 14 90 0 1 14 14 V202 h-88 V190 a14 14 90 0 1 14 -14" fill="#FFFFFF" stroke="#FFFFFF" stroke-width="0"/>
		<path d="M383 202 v12 a14 14 90 0 1 -14 14 H309 a14 14 90 0 1 -14 -14 V202 H88" fill="#FFFFFF" stroke="#FFFFFF" stroke-width="0"/>
		<rect x="295" y="176" width="88" height="52" fill="none" rx="14" stroke="#000000" stroke-width="1.5"/>
		<line x1="295" y1="202" x2="383" y2="202" stroke="#000000" stroke-width="1"/>
		<text x="302" y="194.6" fill="#000000" font-family="Trebuchet MS" font-size="14">EFFECTUER</text>
	</g>
	<text x="344" y="132" fill="#000000" font-family="Verdana" font-size="12">0,N</text>
	<text x="344" y="245" fill="#000000" font-family="Verdana" font-size="12">1,1</text>
</g>

<!-- Association CONCERNE -->
<g>
	<line x1="339" y1="324" x2="212" y2="324" stroke="#000000" stroke-width="1"/>
	<line x1="87" y1="324" x2="212" y2="324" stroke="#000000" stroke-width="1"/>
	<g>
		<path d="M240 298 a14 14 90 0 1 14 14 V324 h-84 V312 a14 14 90 0 1 14 -14" fill="#FFFFFF" stroke="#FFFFFF" stroke-width="0"/>
		<path d="M254 324 v12 a14 14 90 0 1 -14 14 H184 a14 14 90 0 1 -14 -14 V324 H84" fill="#FFFFFF" stroke="#FFFFFF" stroke-width="0"/>
		<rect x="170" y="298" width="84" height="52" fill="none" rx="14" stroke="#000000" stroke-width="1.5"/>
		<line x1="170" y1="324" x2="254" y2="324" stroke="#000000" stroke-width="1"/>
		<text x="177" y="316.6" fill="#000000" font-family="Trebuchet MS" font-size="14">CONCERNE</text>
	</g>
	<text x="260" y="341" fill="#000000" font-family="Verdana" font-size="12">0,1</text>
	<text x="130" y="341" fill="#000000" font-family="Verdana" font-size="12">0,N</text>
</g>

<!-- Association ECHANGER -->
<g>
	<line x1="87" y1="324" x2="87" y2="446" stroke="#000000" stroke-width="1"/>
	<line x1="87" y1="541" x2="87" y2="446" stroke="#000000" stroke-width="1"/>
	<g>
		<path d="M115 420 a14 14 90 0 1 14 14 V446 h-84 V434 a14 14 90 0 1 14 -14" fill="#FFFFFF" stroke="#FFFFFF" stroke-width="0"/>
		<path d="M129 446 v12 a14 14 90 0 1 -14 14 H59 a14 14 90 0 1 -14 -14 V446 H84" fill="#FFFFFF" stroke="#FFFFFF" stroke-width="0"/>
		<rect x="45" y="420" width="84" height="52" fill="none" rx="14" stroke="#000000" stroke-width="1.5"/>
		<line x1="45" y1="446" x2="129" y2="446" stroke="#000000" stroke-width="1"/>
		<text x="52" y="438.6" fill="#000000" font-family="Trebuchet MS" font-size="14">ECHANGER</text>
	</g>
	<text x="92" y="403" fill="#000000" font-family="Verdana" font-size="12">1,1</text>
	<text x="60" y="489" fill="#000000" font-family="Verdana" font-size="12">1,N</text>
</g>

<!-- Association REALISER -->
<g>
	<line x1="87" y1="541" x2="339" y2="446" stroke="#000000" stroke-width="1"/>
	<line x1="339" y1="324" x2="339" y2="446" stroke="#000000" stroke-width="1"/>
	<g>
		<path d="M362 420 a14 14 90 0 1 14 14 V446 h-74 V434 a14 14 90 0 1 14 -14" fill="#FFFFFF" stroke="#FFFFFF" stroke-width="0"/>
		<path d="M376 446 v12 a14 14 90 0 1 -14 14 H316 a14 14 90 0 1 -14 -14 V446 H74" fill="#FFFFFF" stroke="#FFFFFF" stroke-width="0"/>
		<rect x="302" y="420" width="74" height="52" fill="none" rx="14" stroke="#000000" stroke-width="1.5"/>
		<line x1="302" y1="446" x2="376" y2="446" stroke="#000000" stroke-width="1"/>
		<text x="309" y="438.6" fill="#000000" font-family="Trebuchet MS" font-size="14">REALISER</text>
	</g>
	<text x="141" y="536.58" fill="#000000" font-family="Verdana" font-size="12">0,N</text>
	<text x="344" y="412" fill="#000000" font-family="Verdana" font-size="12">1,1</text>
</g>

<!-- Entity ARTICLE -->
<g>
	<g>
		<rect x="46" y="18" width="82" height="26" fill="#FFFFFF" stroke="none" stroke-width="0" opacity="1"/>
		<rect x="46" y="44" width="82" height="98" fill="#FFFFFF" stroke="none" stroke-width="0" opacity="1"/>
		<rect x="46" y="18" width="82" height="124" fill="none" stroke="#000000" stroke-width="1.5" opacity="1"/>
		<line x1="46" y1="44" x2="128" y2="44" stroke="#000000" stroke-width="1"/>
	</g>
	<text x="60" y="36.6" fill="#000000" font-family="Trebuchet MS" font-size="14">ARTICLE</text>
	<text x="51" y="62.6" fill="#000000" font-family="Trebuchet MS" font-size="14">id_article</text>
	<line x1="51" y1="65" x2="114" y2="65" stroke="#000000" stroke-width="1"/>
	<text x="51" y="80.6" fill="#000000" font-family="Trebuchet MS" font-size="14">nom</text>
	<text x="51" y="98.6" fill="#000000" font-family="Trebuchet MS" font-size="14">poids</text>
	<text x="51" y="116.6" fill="#000000" font-family="Trebuchet MS" font-size="14">fournisseur</text>
	<text x="51" y="134.6" fill="#000000" font-family="Trebuchet MS" font-size="14">type</text>
</g>

<!-- Entity STOCK -->
<g>
	<g>
		<rect x="306" y="45" width="66" height="26" fill="#FFFFFF" stroke="none" stroke-width="0" opacity="1"/>
		<rect x="306" y="71" width="66" height="44" fill="#FFFFFF" stroke="none" stroke-width="0" opacity="1"/>
		<rect x="306" y="45" width="66" height="70" fill="none" stroke="#000000" stroke-width="1.5" opacity="1"/>
		<line x1="306" y1="71" x2="372" y2="71" stroke="#000000" stroke-width="1"/>
	</g>
	<text x="318" y="63.6" fill="#000000" font-family="Trebuchet MS" font-size="14">STOCK</text>
	<text x="311" y="89.6" fill="#000000" font-family="Trebuchet MS" font-size="14">id_stock</text>
	<line x1="311" y1="92" x2="365" y2="92" stroke="#000000" stroke-width="1"/>
	<text x="311" y="107.6" fill="#000000" font-family="Trebuchet MS" font-size="14">quantite</text>
</g>

<!-- Entity LOCALISATION -->
<g>
	<g>
		<rect x="538" y="9" width="104" height="26" fill="#FFFFFF" stroke="none" stroke-width="0" opacity="1"/>
		<rect x="538" y="35" width="104" height="116" fill="#FFFFFF" stroke="none" stroke-width="0" opacity="1"/>
		<rect x="538" y="9" width="104" height="142" fill="none" stroke="#000000" stroke-width="1.5" opacity="1"/>
		<line x1="538" y1="35" x2="642" y2="35" stroke="#000000" stroke-width="1"/>
	</g>
	<text x="544" y="27.6" fill="#000000" font-family="Trebuchet MS" font-size="14">LOCALISATION</text>
	<text x="543" y="53.6" fill="#000000" font-family="Trebuchet MS" font-size="14">id_localisation</text>
	<line x1="543" y1="56" x2="637" y2="56" stroke="#000000" stroke-width="1"/>
	<text x="543" y="71.6" fill="#000000" font-family="Trebuchet MS" font-size="14">code</text>
	<text x="543" y="89.6" fill="#000000" font-family="Trebuchet MS" font-size="14">zone</text>
	<text x="543" y="107.6" fill="#000000" font-family="Trebuchet MS" font-size="14">allee</text>
	<text x="543" y="125.6" fill="#000000" font-family="Trebuchet MS" font-size="14">etage</text>
	<text x="543" y="143.6" fill="#000000" font-family="Trebuchet MS" font-size="14">place</text>
</g>

<!-- Entity SITE -->
<g>
	<g>
		<rect x="808" y="36" width="60" height="26" fill="#FFFFFF" stroke="none" stroke-width="0" opacity="1"/>
		<rect x="808" y="62" width="60" height="62" fill="#FFFFFF" stroke="none" stroke-width="0" opacity="1"/>
		<rect x="808" y="36" width="60" height="88" fill="none" stroke="#000000" stroke-width="1.5" opacity="1"/>
		<line x1="808" y1="62" x2="868" y2="62" stroke="#000000" stroke-width="1"/>
	</g>
	<text x="824" y="54.6" fill="#000000" font-family="Trebuchet MS" font-size="14">SITE</text>
	<text x="813" y="80.6" fill="#000000" font-family="Trebuchet MS" font-size="14">id_site</text>
	<line x1="813" y1="83" x2="857" y2="83" stroke="#000000" stroke-width="1"/>
	<text x="813" y="98.6" fill="#000000" font-family="Trebuchet MS" font-size="14">libelle</text>
	<text x="813" y="116.6" fill="#000000" font-family="Trebuchet MS" font-size="14">adresse</text>
</g>

<!-- Entity CLIENT -->
<g>
	<g>
		<rect x="49" y="262" width="76" height="26" fill="#FFFFFF" stroke="none" stroke-width="0" opacity="1"/>
		<rect x="49" y="288" width="76" height="98" fill="#FFFFFF" stroke="none" stroke-width="0" opacity="1"/>
		<rect x="49" y="262" width="76" height="124" fill="none" stroke="#000000" stroke-width="1.5" opacity="1"/>
		<line x1="49" y1="288" x2="125" y2="288" stroke="#000000" stroke-width="1"/>
	</g>
	<text x="64" y="280.6" fill="#000000" font-family="Trebuchet MS" font-size="14">CLIENT</text>
	<text x="54" y="306.6" fill="#000000" font-family="Trebuchet MS" font-size="14">id_client</text>
	<line x1="54" y1="309" x2="112" y2="309" stroke="#000000" stroke-width="1"/>
	<text x="54" y="324.6" fill="#000000" font-family="Trebuchet MS" font-size="14">nom</text>
	<text x="54" y="342.6" fill="#000000" font-family="Trebuchet MS" font-size="14">siret</text>
	<text x="54" y="360.6" fill="#000000" font-family="Trebuchet MS" font-size="14">telephone</text>
	<text x="54" y="378.6" fill="#000000" font-family="Trebuchet MS" font-size="14">status</text>
</g>

<!-- Entity MOUVEMENT -->
<g>
	<g>
		<rect x="286" y="253" width="106" height="26" fill="#FFFFFF" stroke="none" stroke-width="0" opacity="1"/>
		<rect x="286" y="279" width="106" height="116" fill="#FFFFFF" stroke="none" stroke-width="0" opacity="1"/>
		<rect x="286" y="253" width="106" height="142" fill="none" stroke="#000000" stroke-width="1.5" opacity="1"/>
		<line x1="286" y1="279" x2="392" y2="279" stroke="#000000" stroke-width="1"/>
	</g>
	<text x="298" y="271.6" fill="#000000" font-family="Trebuchet MS" font-size="14">MOUVEMENT</text>
	<text x="291" y="297.6" fill="#000000" font-family="Trebuchet MS" font-size="14">id_mouvement</text>
	<line x1="291" y1="300" x2="387" y2="300" stroke="#000000" stroke-width="1"/>
	<text x="291" y="315.6" fill="#000000" font-family="Trebuchet MS" font-size="14">type</text>
	<text x="291" y="333.6" fill="#000000" font-family="Trebuchet MS" font-size="14">reference</text>
	<text x="291" y="351.6" fill="#000000" font-family="Trebuchet MS" font-size="14">date</text>
	<text x="291" y="369.6" fill="#000000" font-family="Trebuchet MS" font-size="14">heure</text>
	<text x="291" y="387.6" fill="#000000" font-family="Trebuchet MS" font-size="14">quantite</text>
</g>

<!-- Entity UTILISATEUR -->
<g>
	<g>
		<rect x="38" y="497" width="98" height="26" fill="#FFFFFF" stroke="none" stroke-width="0" opacity="1"/>
		<rect x="38" y="523" width="98" height="62" fill="#FFFFFF" stroke="none" stroke-width="0" opacity="1"/>
		<rect x="38" y="497" width="98" height="88" fill="none" stroke="#000000" stroke-width="1.5" opacity="1"/>
		<line x1="38" y1="523" x2="136" y2="523" stroke="#000000" stroke-width="1"/>
	</g>
	<text x="46" y="515.6" fill="#000000" font-family="Trebuchet MS" font-size="14">UTILISATEUR</text>
	<text x="43" y="541.6" fill="#000000" font-family="Trebuchet MS" font-size="14">id_utilisateur</text>
	<line x1="43" y1="544" x2="130" y2="544" stroke="#000000" stroke-width="1"/>
	<text x="43" y="559.6" fill="#000000" font-family="Trebuchet MS" font-size="14">nom</text>
	<text x="43" y="577.6" fill="#000000" font-family="Trebuchet MS" font-size="14">role</text>
</g>
</svg>